<svg xmlns="http://www.w3.org/2000/svg" width="400" height="400" viewBox="0 0 400 400">
  <defs>
    <linearGradient id="gradient-18" x1="0%" y1="0%" x2="100%" y2="0%" gradientTransform="rotate(109.6, 0.5, 0.5)">
      <stop offset="11.2%" stop-color="#141e30"/>
      <stop offset="91.1%" stop-color="#243b55"/>
    </linearGradient>
    <radialGradient id="gradient-15" cx="10%" cy="20%" r="100%" fx="10%" fy="20%">
      <stop offset="0%" stop-color="#005f68"/>
      <stop offset="90%" stop-color="#0f9ca8"/>
    </radialGradient>
  </defs>
  <rect width="100%" height="100%" fill="#f1f3f9"/>
  <!-- Bird Icon -->
  <g fill="url(#gradient-18)" transform="translate(95.5, 121) scale(0.255)">
    <path d="M0 333c0 0 106-65 145-80 39-15 62-23 100-52 39-30 88-91 105-104 17-12 17-8 49-19 40-14 95-98 116-74 12 15 44 107 58 69 6-16 19-42 32-32 14 11 11 9 25 60 14 51 20 48 38 66 19 17 5 9 25 49 21 40 62 85 77 109 10 18 18 32 21 37-44-14-127-38-223-54-9-17-10-45-12-55-8-40-60-28-42-61 6-13 89-89 61-85-17 3-47 9-53 12-85 36 20-84-66-47-8 4-31 0-45 15-13 15-31-3-47 15-16 18-6 26-32 47-25 21-24 22-46 37-21 15-24 36-43 43-18 7-53 24-65 24-13 0-63 30-69 36-5 7-109 44-109 44z"/>
    <path d="M35 356c0 0 212-57 406-43 193 14 379 81 379 81l-72 19c-156-59-317-77-317-77 0 0 154 49 243 97l-121 31c0 0-125-75-209-99-83-24-309-9-309-9z"/>
  </g>
  <!-- Business Name -->
  <g fill="url(#gradient-15)" transform="translate(90.5, 245.5) scale(0.684)">
    <path d="M27.06 48.8l-3 0q-0.52 0-0.84-0.26t-0.48-0.66l-2.68-6.92l-12.86 0l-2.68 6.92q-0.14 0.36-0.48 0.64t-0.84 0.28l-3 0l11.46-28.66l3.94 0z M8.28 38.16l10.7 0l-4.5-11.66q-0.44-1.08-0.86-2.7q-0.22 0.82-0.43 1.51t-0.41 1.21z M44.78 38.44q0.28 0.48 0.49 1.01t0.41 1.07q0.2-0.56 0.42-1.07t0.5-1.03l9.7-17.62q0.26-0.46 0.54-0.56t0.8-0.1l2.86 0l0 28.66l-3.4 0l0-21.06q0-0.42 0.02-0.9t0.06-0.98l-9.82 17.92q-0.5 0.9-1.4 0.9l-0.56 0q-0.9 0-1.4-0.9l-10.04-17.98q0.06 0.52 0.09 1.02t0.03 0.92l0 21.06l-3.4 0l0-28.66l2.86 0q0.52 0 0.8 0.1t0.54 0.56l9.9 17.64l0 0z M72.08 48.8l-3.88 0l0-28.66l3.88 0l0 28.66z M81.76 20.14q0.52 0 0.77 0.13t0.57 0.53l16.6 21.6q-0.06-0.52-0.08-1.01t-0.02-0.95l0-20.3l3.4 0l0 28.66l-1.96 0q-0.46 0-0.77-0.16t-0.61-0.54l-16.58-21.58q0.04 0.5 0.06 0.98t0.02 0.88l0 20.42l-3.4 0l0-28.66l2 0l0 0z M121.98 38.08l0 10.72l-3.86 0l0-28.66l8.46 0q2.72 0 4.73 0.63t3.33 1.79t1.97 2.8t0.65 3.66q0 2-0.7 3.66t-2.05 2.86t-3.35 1.87t-4.58 0.67l-4.6 0z M121.98 35l4.6 0q1.66 0 2.93-0.44t2.13-1.23t1.3-1.89t0.44-2.42q0-2.74-1.69-4.28t-5.11-1.54l-4.6 0l0 11.8z M165.74 48.8l-3 0q-0.52 0-0.84-0.26t-0.48-0.66l-2.68-6.92l-12.86 0l-2.68 6.92q-0.14 0.36-0.48 0.64t-0.84 0.28l-3 0l11.46-28.66l3.94 0z M146.96 38.16l10.7 0l-4.5-11.66q-0.44-1.08-0.86-2.7q-0.22 0.82-0.43 1.51t-0.41 1.21z M173.62 32.7l1.46 0q0.76 0 1.21-0.19t0.85-0.65l9.54-10.8q0.44-0.5 0.85-0.71t1.05-0.21l3.3 0l-10.92 12.34q-0.42 0.46-0.79 0.78t-0.79 0.52q0.56 0.18,0.98 0.54t0.88 0.9l11.4 13.58l-3.36 0q-0.38 0-0.64-0.06t-0.45-0.16t-0.35-0.26t-0.32-0.34l-9.9-11.38q-0.22-0.24-0.41-0.41t-0.44-0.29t-0.58-0.17t-0.81-0.05l-1.76,0l0 13.12l-3.86 0l0-28.66l3.86 0l0 12.56z M198.6 20.14q0.52 0 0.77 0.13t0.57 0.53l16.6 21.6q-0.06-0.52-0.08-1.01t-0.02-0.95l0-20.3l3.4 0l0 28.66l-1.96 0q-0.46 0-0.77-0.16t-0.61-0.54l-16.58-21.58q0.04 0.5 0.06 0.98t0.02 0.88l0 20.42l-3.4 0l0-28.66l2 0l0 0z M244.5 20.14l0 3.16l-13.76 0l0 9.52l11.14 0l0 3.04l-11.14 0l0 9.78l13.76 0l0 3.16l-17.66 0l0-28.66l17.66 0z M260.86 38.9q0 2.4-0.59 4.3t-1.74 3.21t-2.83 2.01t-3.86 0.7q-1.94 0-4.04-0.56q0.04-0.58 0.1-1.15t0.12-1.13q0.04-0.34,0.25-0.55t0.63-0.21q0.36 0,0.96 0.18t1.6 0.18q1.32 0,2.35-0.4t1.74-1.24t1.08-2.15t0.37-3.11l0-18.84l3.86 0l0 18.76z M291.42 48.8l-3 0q-0.52 0-0.84-0.26t-0.48-0.66l-2.68-6.92l-12.86 0l-2.68 6.92q-0.14 0.36-0.48 0.64t-0.84 0.28l-3 0l11.46-28.66l3.94 0z M272.64 38.16l10.7 0l-4.5-11.66q-0.44-1.08-0.86-2.7q-0.22 0.82-0.43 1.51t-0.41 1.21z M319.88 34.48q0 3.22-1.02 5.86t-2.88 4.52t-4.46 2.91t-5.76 1.03l-10.72 0l0-28.66l10.72 0q3.16,0 5.76,1.03t4.46,2.92t2.88,4.53t1.02,5.86z M315.9 34.48q0-2.64-0.72-4.72t-2.04-3.52t-3.2-2.2t-4.18-0.76l-6.82,0l0 22.38l6.82,0q2.3,0 4.18-0.76t3.2-2.19t2.04-3.51t0.72-4.72z"/>
  </g>
</svg>
